<svg width="1440" height="700" viewBox="0 0 1440 700" fill="none" xmlns="http://www.w3.org/2000/svg">
<g clip-path="url(#clip0_27_1013)">
<rect width="1440" height="700" fill="white"/>
<g clip-path="url(#clip1_27_1013)">
<mask id="mask0_27_1013" style="mask-type:luminance" maskUnits="userSpaceOnUse" x="68" y="140" width="1440" height="560">
<path d="M1508 140H68V700H1508V140Z" fill="white"/>
</mask>
<g mask="url(#mask0_27_1013)">
<path d="M-11.2001 487.53L169.74 517.03" stroke="#8B92A1" stroke-opacity="0.2" stroke-width="1.5"/>
<path d="M18.2699 675.82L136.44 671.59" stroke="#8B92A1" stroke-opacity="0.2" stroke-width="1.5"/>
<path d="M18.2699 675.82L171.77 802.72" stroke="#8B92A1" stroke-opacity="0.2" stroke-width="1.5"/>
<path d="M18.2699 675.82L169.74 517.03" stroke="#8B92A1" stroke-opacity="0.2" stroke-width="1.5"/>
<path d="M-35.1801 781.98L136.44 671.59" stroke="#8B92A1" stroke-opacity="0.2" stroke-width="1.5"/>
<path d="M-35.1801 781.98L169.74 517.03" stroke="#8B92A1" stroke-opacity="0.2" stroke-width="1.5"/>
<path d="M-35.1801 781.98L319.6 641.17" stroke="#8B92A1" stroke-opacity="0.2" stroke-width="1.5"/>
<path d="M169.74 517.03L136.44 671.59" stroke="#8B92A1" stroke-opacity="0.2" stroke-width="1.5"/>
<path d="M169.74 517.03L319.6 641.17" stroke="#8B92A1" stroke-opacity="0.2" stroke-width="1.5"/>
<path d="M136.44 671.59L171.77 802.72" stroke="#8B92A1" stroke-opacity="0.2" stroke-width="1.5"/>
<path d="M171.77 802.72L319.6 641.17" stroke="#8B92A1" stroke-opacity="0.2" stroke-width="1.5"/>
<path d="M319.6 641.17L455.94 674.02" stroke="#8B92A1" stroke-opacity="0.2" stroke-width="1.5"/>
<path d="M319.6 641.17L452.64 521.77" stroke="#8B92A1" stroke-opacity="0.2" stroke-width="1.5"/>
<path d="M319.6 641.17L136.44 671.59" stroke="#8B92A1" stroke-opacity="0.2" stroke-width="1.5"/>
<path d="M452.64 521.77L455.94 674.02" stroke="#8B92A1" stroke-opacity="0.2" stroke-width="1.5"/>
<path d="M452.64 521.77L576.21 628.72" stroke="#8B92A1" stroke-opacity="0.2" stroke-width="1.5"/>
<path d="M452.64 521.77L621.38 500.85" stroke="#8B92A1" stroke-opacity="0.2" stroke-width="1.5"/>
<path d="M455.94 674.02L576.21 628.72" stroke="#8B92A1" stroke-opacity="0.2" stroke-width="1.5"/>
<path d="M455.94 674.02L469.72 843.43" stroke="#8B92A1" stroke-opacity="0.2" stroke-width="1.5"/>
<path d="M455.94 674.02L625.96 781.67" stroke="#8B92A1" stroke-opacity="0.2" stroke-width="1.5"/>
<path d="M469.72 843.43L576.21 628.72" stroke="#8B92A1" stroke-opacity="0.2" stroke-width="1.5"/>
<path d="M469.72 843.43L319.6 641.17" stroke="#8B92A1" stroke-opacity="0.2" stroke-width="1.5"/>
<path d="M621.38 500.85L731.37 509.4" stroke="#8B92A1" stroke-opacity="0.2" stroke-width="1.5"/>
<path d="M621.38 500.85L576.21 628.72" stroke="#8B92A1" stroke-opacity="0.2" stroke-width="1.5"/>
<path d="M621.38 500.85L777.02 395.26" stroke="#8B92A1" stroke-opacity="0.2" stroke-width="1.5"/>
<path d="M621.38 500.85L732.41 691.99" stroke="#8B92A1" stroke-opacity="0.2" stroke-width="1.5"/>
<path d="M621.38 500.85L455.94 674.02" stroke="#8B92A1" stroke-opacity="0.2" stroke-width="1.5"/>
<path d="M625.96 781.67L732.41 691.99" stroke="#8B92A1" stroke-opacity="0.2" stroke-width="1.5"/>
<path d="M777.02 395.26L731.37 509.4" stroke="#8B92A1" stroke-opacity="0.2" stroke-width="1.5"/>
<path d="M777.02 395.26L921.55 396.79" stroke="#8B92A1" stroke-opacity="0.2" stroke-width="1.5"/>
<path d="M731.37 509.4L732.41 691.99" stroke="#8B92A1" stroke-opacity="0.2" stroke-width="1.5"/>
<path d="M731.37 509.4L911.97 549.38" stroke="#8B92A1" stroke-opacity="0.2" stroke-width="1.5"/>
<path d="M731.37 509.4L576.21 628.72" stroke="#8B92A1" stroke-opacity="0.2" stroke-width="1.5"/>
<path d="M732.41 691.99L772.52 780.83" stroke="#8B92A1" stroke-opacity="0.2" stroke-width="1.5"/>
<path d="M732.41 691.99L883.79 653.14" stroke="#8B92A1" stroke-opacity="0.2" stroke-width="1.5"/>
<path d="M732.41 691.99L576.21 628.72" stroke="#8B92A1" stroke-opacity="0.2" stroke-width="1.5"/>
<path d="M772.52 780.83L883.79 653.14" stroke="#8B92A1" stroke-opacity="0.2" stroke-width="1.5"/>
<path d="M772.52 780.83L576.21 628.72" stroke="#8B92A1" stroke-opacity="0.2" stroke-width="1.5"/>
<path d="M772.52 780.83L911.97 549.38" stroke="#8B92A1" stroke-opacity="0.2" stroke-width="1.5"/>
<path d="M901.61 242.1L921.55 396.79" stroke="#8B92A1" stroke-opacity="0.2" stroke-width="1.5"/>
<path d="M901.61 242.1L1075.14 238.91" stroke="#8B92A1" stroke-opacity="0.2" stroke-width="1.5"/>
<path d="M901.61 242.1L1058.98 343.96" stroke="#8B92A1" stroke-opacity="0.2" stroke-width="1.5"/>
<path d="M901.61 242.1L777.02 395.26" stroke="#8B92A1" stroke-opacity="0.2" stroke-width="1.5"/>
<path d="M901.61 242.1L1023.67 35.2" stroke="#8B92A1" stroke-opacity="0.2" stroke-width="1.5"/>
<path d="M901.61 242.1L1156.06 354.38" stroke="#8B92A1" stroke-opacity="0.2" stroke-width="1.5"/>
<path d="M921.55 396.79L1058.98 343.96" stroke="#8B92A1" stroke-opacity="0.2" stroke-width="1.5"/>
<path d="M911.97 549.38L883.79 653.14" stroke="#8B92A1" stroke-opacity="0.2" stroke-width="1.5"/>
<path d="M911.97 549.38L921.55 396.79" stroke="#8B92A1" stroke-opacity="0.2" stroke-width="1.5"/>
<path d="M911.97 549.38L1066.13 493.03" stroke="#8B92A1" stroke-opacity="0.2" stroke-width="1.5"/>
<path d="M911.97 549.38L777.02 395.26" stroke="#8B92A1" stroke-opacity="0.2" stroke-width="1.5"/>
<path d="M883.79 653.14L898.62 781.79" stroke="#8B92A1" stroke-opacity="0.2" stroke-width="1.5"/>
<path d="M898.62 781.79L732.41 691.99" stroke="#8B92A1" stroke-opacity="0.2" stroke-width="1.5"/>
<path d="M898.62 781.79L1080.05 669.5" stroke="#8B92A1" stroke-opacity="0.2" stroke-width="1.5"/>
<path d="M898.62 781.79L911.97 549.38" stroke="#8B92A1" stroke-opacity="0.2" stroke-width="1.5"/>
<path d="M1023.67 35.2L1075.14 238.91" stroke="#8B92A1" stroke-opacity="0.2" stroke-width="1.5"/>
<path d="M1075.14 238.91L1058.98 343.96" stroke="#8B92A1" stroke-opacity="0.2" stroke-width="1.5"/>
<path d="M1075.14 238.91L1156.06 354.38" stroke="#8B92A1" stroke-opacity="0.2" stroke-width="1.5"/>
<path d="M1075.14 238.91L1220.98 182.87" stroke="#8B92A1" stroke-opacity="0.2" stroke-width="1.5"/>
<path d="M1058.98 343.96L1156.06 354.38" stroke="#8B92A1" stroke-opacity="0.2" stroke-width="1.5"/>
<path d="M1066.13 493.03L1058.98 343.96" stroke="#8B92A1" stroke-opacity="0.2" stroke-width="1.5"/>
<path d="M1066.13 493.03L1213.64 539" stroke="#8B92A1" stroke-opacity="0.2" stroke-width="1.5"/>
<path d="M1080.05 669.5L1044.14 788.95" stroke="#8B92A1" stroke-opacity="0.2" stroke-width="1.5"/>
<path d="M1080.05 669.5L1210.84 697.9" stroke="#8B92A1" stroke-opacity="0.2" stroke-width="1.5"/>
<path d="M1080.05 669.5L1066.13 493.03" stroke="#8B92A1" stroke-opacity="0.2" stroke-width="1.5"/>
<path d="M1080.05 669.5L1213.64 539" stroke="#8B92A1" stroke-opacity="0.2" stroke-width="1.5"/>
<path d="M1080.05 669.5L1180.58 829.02" stroke="#8B92A1" stroke-opacity="0.2" stroke-width="1.5"/>
<path d="M1224.32 89.99L1220.98 182.87" stroke="#8B92A1" stroke-opacity="0.2" stroke-width="1.5"/>
<path d="M1224.32 89.99L1359.52 213.03" stroke="#8B92A1" stroke-opacity="0.2" stroke-width="1.5"/>
<path d="M1220.98 182.87L1359.52 213.03" stroke="#8B92A1" stroke-opacity="0.2" stroke-width="1.5"/>
<path d="M1220.98 182.87L1156.06 354.38" stroke="#8B92A1" stroke-opacity="0.2" stroke-width="1.5"/>
<path d="M1220.98 182.87L1331.67 330.37" stroke="#8B92A1" stroke-opacity="0.2" stroke-width="1.5"/>
<path d="M1220.98 182.87L1365.25 51.21" stroke="#8B92A1" stroke-opacity="0.2" stroke-width="1.5"/>
<path d="M1156.06 354.38L1066.13 493.03" stroke="#8B92A1" stroke-opacity="0.2" stroke-width="1.5"/>
<path d="M1156.06 354.38L1331.67 330.37" stroke="#8B92A1" stroke-opacity="0.2" stroke-width="1.5"/>
<path d="M1156.06 354.38L1213.64 539" stroke="#8B92A1" stroke-opacity="0.2" stroke-width="1.5"/>
<path d="M1213.64 539L1210.84 697.9" stroke="#8B92A1" stroke-opacity="0.2" stroke-width="1.5"/>
<path d="M1213.64 539L1378.59 487.42" stroke="#8B92A1" stroke-opacity="0.2" stroke-width="1.5"/>
<path d="M1213.64 539L1369.24 646.19" stroke="#8B92A1" stroke-opacity="0.2" stroke-width="1.5"/>
<path d="M1210.84 697.9L1180.58 829.02" stroke="#8B92A1" stroke-opacity="0.2" stroke-width="1.5"/>
<path d="M1210.84 697.9L1369.24 646.19" stroke="#8B92A1" stroke-opacity="0.2" stroke-width="1.5"/>
<path d="M1210.84 697.9L1044.14 788.95" stroke="#8B92A1" stroke-opacity="0.2" stroke-width="1.5"/>
<path d="M1210.84 697.9L1371.63 831.27" stroke="#8B92A1" stroke-opacity="0.2" stroke-width="1.5"/>
<path d="M1180.58 829.02L1369.24 646.19" stroke="#8B92A1" stroke-opacity="0.2" stroke-width="1.5"/>
<path d="M1365.25 51.21L1359.52 213.03" stroke="#8B92A1" stroke-opacity="0.2" stroke-width="1.5"/>
<path d="M1365.25 51.21L1496.4 193.26" stroke="#8B92A1" stroke-opacity="0.2" stroke-width="1.5"/>
<path d="M1359.52 213.03L1331.67 330.37" stroke="#8B92A1" stroke-opacity="0.2" stroke-width="1.5"/>
<path d="M1359.52 213.03L1496.4 193.26" stroke="#8B92A1" stroke-opacity="0.2" stroke-width="1.5"/>
<path d="M1331.67 330.37L1378.59 487.42" stroke="#8B92A1" stroke-opacity="0.2" stroke-width="1.5"/>
<path d="M1331.67 330.37L1509.05 371.33" stroke="#8B92A1" stroke-opacity="0.2" stroke-width="1.5"/>
<path d="M1378.59 487.42L1461.59 482.1" stroke="#8B92A1" stroke-opacity="0.2" stroke-width="1.5"/>
<path d="M1378.59 487.42L1369.24 646.19" stroke="#8B92A1" stroke-opacity="0.2" stroke-width="1.5"/>
<path d="M1378.59 487.42L1509.05 371.33" stroke="#8B92A1" stroke-opacity="0.2" stroke-width="1.5"/>
<path d="M1369.24 646.19L1460.49 676.52" stroke="#8B92A1" stroke-opacity="0.2" stroke-width="1.5"/>
<path d="M1369.24 646.19L1470.62 785.44" stroke="#8B92A1" stroke-opacity="0.2" stroke-width="1.5"/>
<path d="M1371.63 831.27L1460.49 676.52" stroke="#8B92A1" stroke-opacity="0.2" stroke-width="1.5"/>
<path d="M1371.63 831.27L1369.24 646.19" stroke="#8B92A1" stroke-opacity="0.2" stroke-width="1.5"/>
<path d="M1371.63 831.269L1621.48 683.679" stroke="#8B92A1" stroke-opacity="0.2" stroke-width="1.5"/>
<path d="M1472.06 50.3999L1359.52 213.03" stroke="#8B92A1" stroke-opacity="0.2" stroke-width="1.5"/>
<path d="M1461.59 482.1L1369.24 646.19" stroke="#8B92A1" stroke-opacity="0.2" stroke-width="1.5"/>
<path d="M1621.48 683.68L1369.24 646.19" stroke="#8B92A1" stroke-opacity="0.2" stroke-width="1.5"/>
<path d="M169.74 522.03C172.501 522.03 174.74 519.791 174.74 517.03C174.74 514.269 172.501 512.03 169.74 512.03C166.979 512.03 164.74 514.269 164.74 517.03C164.74 519.791 166.979 522.03 169.74 522.03Z" fill="#8B92A1" fill-opacity="0.2"/>
<path d="M136.44 676.59C139.201 676.59 141.44 674.351 141.44 671.59C141.44 668.828 139.201 666.59 136.44 666.59C133.679 666.59 131.44 668.828 131.44 671.59C131.44 674.351 133.679 676.59 136.44 676.59Z" fill="#8B92A1" fill-opacity="0.2"/>
<path d="M319.6 646.17C322.361 646.17 324.6 643.931 324.6 641.17C324.6 638.408 322.361 636.17 319.6 636.17C316.839 636.17 314.6 638.408 314.6 641.17C314.6 643.931 316.839 646.17 319.6 646.17Z" fill="#8B92A1" fill-opacity="0.2"/>
<path d="M452.64 526.77C455.401 526.77 457.64 524.532 457.64 521.77C457.64 519.009 455.401 516.77 452.64 516.77C449.878 516.77 447.64 519.009 447.64 521.77C447.64 524.532 449.878 526.77 452.64 526.77Z" fill="#8B92A1" fill-opacity="0.2"/>
<path d="M455.94 679.02C458.701 679.02 460.94 676.782 460.94 674.02C460.94 671.259 458.701 669.02 455.94 669.02C453.179 669.02 450.94 671.259 450.94 674.02C450.94 676.782 453.179 679.02 455.94 679.02Z" fill="#8B92A1" fill-opacity="0.2"/>
<path d="M621.38 505.85C624.141 505.85 626.38 503.612 626.38 500.85C626.38 498.089 624.141 495.85 621.38 495.85C618.618 495.85 616.38 498.089 616.38 500.85C616.38 503.612 618.618 505.85 621.38 505.85Z" fill="#8B92A1" fill-opacity="0.2"/>
<path d="M576.21 633.72C578.971 633.72 581.21 631.482 581.21 628.72C581.21 625.959 578.971 623.72 576.21 623.72C573.449 623.72 571.21 625.959 571.21 628.72C571.21 631.482 573.449 633.72 576.21 633.72Z" fill="#8B92A1" fill-opacity="0.2"/>
<path d="M777.02 400.26C779.781 400.26 782.02 398.021 782.02 395.26C782.02 392.498 779.781 390.26 777.02 390.26C774.259 390.26 772.02 392.498 772.02 395.26C772.02 398.021 774.259 400.26 777.02 400.26Z" fill="#8B92A1" fill-opacity="0.2"/>
<path d="M731.37 514.4C734.131 514.4 736.37 512.161 736.37 509.4C736.37 506.638 734.131 504.4 731.37 504.4C728.608 504.4 726.37 506.638 726.37 509.4C726.37 512.161 728.608 514.4 731.37 514.4Z" fill="#8B92A1" fill-opacity="0.2"/>
<path d="M732.41 696.99C735.171 696.99 737.41 694.751 737.41 691.99C737.41 689.229 735.171 686.99 732.41 686.99C729.648 686.99 727.41 689.229 727.41 691.99C727.41 694.751 729.648 696.99 732.41 696.99Z" fill="#8B92A1" fill-opacity="0.2"/>
<path d="M901.61 247.1C904.371 247.1 906.61 244.862 906.61 242.1C906.61 239.339 904.371 237.1 901.61 237.1C898.848 237.1 896.61 239.339 896.61 242.1C896.61 244.862 898.848 247.1 901.61 247.1Z" fill="#8B92A1" fill-opacity="0.2"/>
<path d="M921.55 401.79C924.311 401.79 926.55 399.551 926.55 396.79C926.55 394.029 924.311 391.79 921.55 391.79C918.789 391.79 916.55 394.029 916.55 396.79C916.55 399.551 918.789 401.79 921.55 401.79Z" fill="#8B92A1" fill-opacity="0.2"/>
<path d="M911.97 554.38C914.731 554.38 916.97 552.141 916.97 549.38C916.97 546.618 914.731 544.38 911.97 544.38C909.209 544.38 906.97 546.618 906.97 549.38C906.97 552.141 909.209 554.38 911.97 554.38Z" fill="#8B92A1" fill-opacity="0.2"/>
<path d="M883.79 658.14C886.551 658.14 888.79 655.902 888.79 653.14C888.79 650.379 886.551 648.14 883.79 648.14C881.028 648.14 878.79 650.379 878.79 653.14C878.79 655.902 881.028 658.14 883.79 658.14Z" fill="#8B92A1" fill-opacity="0.2"/>
<path d="M1075.14 243.91C1077.9 243.91 1080.14 241.671 1080.14 238.91C1080.14 236.148 1077.9 233.91 1075.14 233.91C1072.38 233.91 1070.14 236.148 1070.14 238.91C1070.14 241.671 1072.38 243.91 1075.14 243.91Z" fill="#8B92A1" fill-opacity="0.2"/>
<path d="M1058.98 348.96C1061.74 348.96 1063.98 346.721 1063.98 343.96C1063.98 341.198 1061.74 338.96 1058.98 338.96C1056.22 338.96 1053.98 341.198 1053.98 343.96C1053.98 346.721 1056.22 348.96 1058.98 348.96Z" fill="#8B92A1" fill-opacity="0.2"/>
<path d="M1066.13 498.03C1068.89 498.03 1071.13 495.791 1071.13 493.03C1071.13 490.269 1068.89 488.03 1066.13 488.03C1063.37 488.03 1061.13 490.269 1061.13 493.03C1061.13 495.791 1063.37 498.03 1066.13 498.03Z" fill="#8B92A1" fill-opacity="0.2"/>
<path d="M1080.05 674.5C1082.81 674.5 1085.05 672.261 1085.05 669.5C1085.05 666.739 1082.81 664.5 1080.05 664.5C1077.29 664.5 1075.05 666.739 1075.05 669.5C1075.05 672.261 1077.29 674.5 1080.05 674.5Z" fill="#8B92A1" fill-opacity="0.2"/>
<path d="M1220.98 187.87C1223.74 187.87 1225.98 185.631 1225.98 182.87C1225.98 180.109 1223.74 177.87 1220.98 177.87C1218.22 177.87 1215.98 180.109 1215.98 182.87C1215.98 185.631 1218.22 187.87 1220.98 187.87Z" fill="#8B92A1" fill-opacity="0.2"/>
<path d="M1156.06 359.38C1158.82 359.38 1161.06 357.141 1161.06 354.38C1161.06 351.618 1158.82 349.38 1156.06 349.38C1153.3 349.38 1151.06 351.618 1151.06 354.38C1151.06 357.141 1153.3 359.38 1156.06 359.38Z" fill="#8B92A1" fill-opacity="0.2"/>
<path d="M1213.64 544C1216.4 544 1218.64 541.761 1218.64 539C1218.64 536.239 1216.4 534 1213.64 534C1210.88 534 1208.64 536.239 1208.64 539C1208.64 541.761 1210.88 544 1213.64 544Z" fill="#8B92A1" fill-opacity="0.2"/>
<path d="M1210.84 702.9C1213.6 702.9 1215.84 700.661 1215.84 697.9C1215.84 695.138 1213.6 692.9 1210.84 692.9C1208.08 692.9 1205.84 695.138 1205.84 697.9C1205.84 700.661 1208.08 702.9 1210.84 702.9Z" fill="#8B92A1" fill-opacity="0.2"/>
<path d="M1359.52 218.03C1362.28 218.03 1364.52 215.791 1364.52 213.03C1364.52 210.268 1362.28 208.03 1359.52 208.03C1356.76 208.03 1354.52 210.268 1354.52 213.03C1354.52 215.791 1356.76 218.03 1359.52 218.03Z" fill="#8B92A1" fill-opacity="0.2"/>
<path d="M1331.67 335.37C1334.43 335.37 1336.67 333.131 1336.67 330.37C1336.67 327.608 1334.43 325.37 1331.67 325.37C1328.91 325.37 1326.67 327.608 1326.67 330.37C1326.67 333.131 1328.91 335.37 1331.67 335.37Z" fill="#8B92A1" fill-opacity="0.2"/>
<path d="M1378.59 492.42C1381.35 492.42 1383.59 490.181 1383.59 487.42C1383.59 484.658 1381.35 482.42 1378.59 482.42C1375.83 482.42 1373.59 484.658 1373.59 487.42C1373.59 490.181 1375.83 492.42 1378.59 492.42Z" fill="#8B92A1" fill-opacity="0.2"/>
<path d="M1369.24 651.19C1372 651.19 1374.24 648.952 1374.24 646.19C1374.24 643.429 1372 641.19 1369.24 641.19C1366.48 641.19 1364.24 643.429 1364.24 646.19C1364.24 648.952 1366.48 651.19 1369.24 651.19Z" fill="#8B92A1" fill-opacity="0.2"/>
<path d="M861.46 841.19L773.39 631.34" stroke="#F2C757" stroke-width="1.5"/>
<path d="M861.46 841.19L1029.44 660.63" stroke="#F2C757" stroke-width="1.5"/>
<path d="M1220.96 63.0203L1366.33 183.72" stroke="#F2C757" stroke-width="1.5"/>
<path d="M1157.63 657.6L1029.44 660.63" stroke="#F2C757" stroke-width="1.5"/>
<path d="M1157.63 657.6L1068.08 545.19" stroke="#F2C757" stroke-width="1.5"/>
<path d="M1157.63 657.599L1189.94 499.76" stroke="#F2C757" stroke-width="1.5"/>
<path d="M1376.26 85.6697L1366.33 183.72" stroke="#F2C757" stroke-width="1.5"/>
<path d="M1366.43 805.64L1473.98 672.33" stroke="#F2C757" stroke-width="1.5"/>
<path d="M1639.68 680.42L1366.43 805.64" stroke="#F2C757" stroke-width="1.5"/>
<path d="M21.1899 662.02L141.9 694.66" stroke="#F2C757" stroke-width="1.5"/>
<path d="M21.1899 662.02L112.97 809.81" stroke="#F2C757" stroke-width="1.5"/>
<path d="M27.01 847.61L141.9 694.66" stroke="#F2C757" stroke-width="1.5"/>
<path d="M27.01 847.61L430.92 636.45" stroke="#F2C757" stroke-width="1.5"/>
<path d="M141.9 694.66L112.97 809.81" stroke="#F2C757" stroke-width="1.5"/>
<path d="M141.9 694.66L430.92 636.45" stroke="#F2C757" stroke-width="1.5"/>
<path d="M141.9 694.66L422.22 841.18" stroke="#F2C757" stroke-width="1.5"/>
<path d="M430.92 636.45L617.27 681.54" stroke="#F2C757" stroke-width="1.5"/>
<path d="M430.92 636.45L422.22 841.18" stroke="#F2C757" stroke-width="1.5"/>
<path d="M430.92 636.45L575.88 781.87" stroke="#F2C757" stroke-width="1.5"/>
<path d="M430.92 636.45L712.21 780.75" stroke="#F2C757" stroke-width="1.5"/>
<path d="M422.22 841.18L617.27 681.54" stroke="#F2C757" stroke-width="1.5"/>
<path d="M617.27 681.54L575.88 781.87" stroke="#F2C757" stroke-width="1.5"/>
<path d="M617.27 681.54L712.21 780.75" stroke="#F2C757" stroke-width="1.5"/>
<path d="M617.27 681.54L773.39 631.34" stroke="#F2C757" stroke-width="1.5"/>
<path d="M773.39 631.34L712.21 780.75" stroke="#F2C757" stroke-width="1.5"/>
<path d="M773.39 631.34L877.89 486.74" stroke="#F2C757" stroke-width="1.5"/>
<path d="M877.89 486.74L1068.08 545.19" stroke="#F2C757" stroke-width="1.5"/>
<path d="M877.89 486.74L1029.44 660.63" stroke="#F2C757" stroke-width="1.5"/>
<path d="M1068.08 545.19L1029.44 660.63" stroke="#F2C757" stroke-width="1.5"/>
<path d="M1068.08 545.19L1189.94 499.76" stroke="#F2C757" stroke-width="1.5"/>
<path d="M1007.64 818.37L1029.44 660.63" stroke="#F2C757" stroke-width="1.5"/>
<path d="M1007.64 818.37L1157.63 657.6" stroke="#F2C757" stroke-width="1.5"/>
<path d="M1007.64 818.37L1068.08 545.19" stroke="#F2C757" stroke-width="1.5"/>
<path d="M1224.38 381.09L1189.94 499.76" stroke="#F2C757" stroke-width="1.5"/>
<path d="M1224.38 381.09L1356.92 357.01" stroke="#F2C757" stroke-width="1.5"/>
<path d="M1224.38 381.09L1360.35 489.02" stroke="#F2C757" stroke-width="1.5"/>
<path d="M1224.38 381.09L1068.08 545.19" stroke="#F2C757" stroke-width="1.5"/>
<path d="M1189.94 499.76L1360.35 489.02" stroke="#F2C757" stroke-width="1.5"/>
<path d="M1189.94 499.76L1356.92 357.01" stroke="#F2C757" stroke-width="1.5"/>
<path d="M1163.44 838.66L1157.63 657.6" stroke="#F2C757" stroke-width="1.5"/>
<path d="M1163.44 838.66L1029.44 660.63" stroke="#F2C757" stroke-width="1.5"/>
<path d="M1366.33 183.719L1530.18 237.769" stroke="#F2C757" stroke-width="1.5"/>
<path d="M1366.33 183.719L1356.92 357.009" stroke="#F2C757" stroke-width="1.5"/>
<path d="M1356.92 357.01L1360.35 489.02" stroke="#F2C757" stroke-width="1.5"/>
<path d="M1360.35 489.02L1509.08 526.31" stroke="#F2C757" stroke-width="1.5"/>
<path d="M1360.35 489.02L1473.98 672.33" stroke="#F2C757" stroke-width="1.5"/>
<path d="M1360.35 489.02L1617.68 518.95" stroke="#F2C757" stroke-width="1.5"/>
<path d="M1509.16 41.45L1366.33 183.72" stroke="#F2C757" stroke-width="1.5"/>
<path d="M1157.63 682.6C1171.44 682.6 1182.63 671.407 1182.63 657.6C1182.63 643.793 1171.44 632.6 1157.63 632.6C1143.82 632.6 1132.63 643.793 1132.63 657.6C1132.63 671.407 1143.82 682.6 1157.63 682.6Z" fill="url(#paint0_radial_27_1013)"/>
<path d="M141.9 699.66C144.661 699.66 146.9 697.421 146.9 694.66C146.9 691.898 144.661 689.66 141.9 689.66C139.138 689.66 136.9 691.898 136.9 694.66C136.9 697.421 139.138 699.66 141.9 699.66Z" fill="#ECF2FD"/>
<path d="M430.92 641.45C433.681 641.45 435.92 639.211 435.92 636.45C435.92 633.689 433.681 631.45 430.92 631.45C428.158 631.45 425.92 633.689 425.92 636.45C425.92 639.211 428.158 641.45 430.92 641.45Z" fill="#ECF2FD"/>
<path d="M617.27 686.54C620.031 686.54 622.27 684.301 622.27 681.54C622.27 678.778 620.031 676.54 617.27 676.54C614.509 676.54 612.27 678.778 612.27 681.54C612.27 684.301 614.509 686.54 617.27 686.54Z" fill="#ECF2FD"/>
<path d="M773.39 636.34C776.151 636.34 778.39 634.101 778.39 631.34C778.39 628.578 776.151 626.34 773.39 626.34C770.628 626.34 768.39 628.578 768.39 631.34C768.39 634.101 770.628 636.34 773.39 636.34Z" fill="#ECF2FD"/>
<path d="M877.89 491.74C880.651 491.74 882.89 489.501 882.89 486.74C882.89 483.979 880.651 481.74 877.89 481.74C875.128 481.74 872.89 483.979 872.89 486.74C872.89 489.501 875.128 491.74 877.89 491.74Z" fill="#ECF2FD"/>
<path d="M1068.08 550.19C1070.84 550.19 1073.08 547.952 1073.08 545.19C1073.08 542.429 1070.84 540.19 1068.08 540.19C1065.32 540.19 1063.08 542.429 1063.08 545.19C1063.08 547.952 1065.32 550.19 1068.08 550.19Z" fill="#ECF2FD"/>
<path d="M1029.44 665.63C1032.2 665.63 1034.44 663.391 1034.44 660.63C1034.44 657.868 1032.2 655.63 1029.44 655.63C1026.68 655.63 1024.44 657.868 1024.44 660.63C1024.44 663.391 1026.68 665.63 1029.44 665.63Z" fill="#ECF2FD"/>
<path d="M1224.38 386.09C1227.14 386.09 1229.38 383.851 1229.38 381.09C1229.38 378.328 1227.14 376.09 1224.38 376.09C1221.62 376.09 1219.38 378.328 1219.38 381.09C1219.38 383.851 1221.62 386.09 1224.38 386.09Z" fill="#ECF2FD"/>
<path d="M1189.94 504.76C1192.7 504.76 1194.94 502.521 1194.94 499.76C1194.94 496.998 1192.7 494.76 1189.94 494.76C1187.18 494.76 1184.94 496.998 1184.94 499.76C1184.94 502.521 1187.18 504.76 1189.94 504.76Z" fill="#ECF2FD"/>
<path d="M1366.33 188.719C1369.09 188.719 1371.33 186.481 1371.33 183.719C1371.33 180.958 1369.09 178.719 1366.33 178.719C1363.57 178.719 1361.33 180.958 1361.33 183.719C1361.33 186.481 1363.57 188.719 1366.33 188.719Z" fill="#ECF2FD"/>
<path d="M1356.92 362.01C1359.68 362.01 1361.92 359.771 1361.92 357.01C1361.92 354.248 1359.68 352.01 1356.92 352.01C1354.16 352.01 1351.92 354.248 1351.92 357.01C1351.92 359.771 1354.16 362.01 1356.92 362.01Z" fill="#ECF2FD"/>
<path d="M1360.35 494.02C1363.11 494.02 1365.35 491.782 1365.35 489.02C1365.35 486.259 1363.11 484.02 1360.35 484.02C1357.59 484.02 1355.35 486.259 1355.35 489.02C1355.35 491.782 1357.59 494.02 1360.35 494.02Z" fill="#ECF2FD"/>
</g>
</g>
</g>
<defs>
<radialGradient id="paint0_radial_27_1013" cx="0" cy="0" r="1" gradientUnits="userSpaceOnUse" gradientTransform="translate(1157.63 657.6) scale(25 25)">
<stop offset="0.1" stop-color="white"/>
<stop offset="0.2" stop-color="#D6E2FA" stop-opacity="0.93"/>
<stop offset="1" stop-color="#D6E2FA" stop-opacity="0"/>
</radialGradient>
<clipPath id="clip0_27_1013">
<rect width="1440" height="700" fill="white"/>
</clipPath>
<clipPath id="clip1_27_1013">
<rect width="1440" height="560" fill="white" transform="translate(68 140)"/>
</clipPath>
</defs>
</svg>
