<svg width="18" height="22" viewBox="0 0 18 22" fill="none" xmlns="http://www.w3.org/2000/svg">
<path d="M14.8187 11.5804C14.8404 9.89936 15.7438 8.30876 17.1769 7.4283C16.2728 6.13798 14.7585 5.31988 13.183 5.27062C11.5026 5.09436 9.87348 6.27545 9.01717 6.27545C8.1443 6.27545 6.82588 5.28812 5.40616 5.31731C3.55563 5.37705 1.83046 6.42844 0.930139 8.04518C-1.0052 11.3936 0.438387 16.3146 2.29228 19.0213C3.21983 20.3466 4.30386 21.8271 5.72229 21.7746C7.11032 21.717 7.62872 20.8901 9.30418 20.8901C10.9641 20.8901 11.4505 21.7746 12.8977 21.7412C14.3871 21.717 15.3255 20.4099 16.2205 19.072C16.8869 18.1277 17.3998 17.084 17.74 15.9795C15.9896 15.2397 14.8207 13.4795 14.8187 11.5804Z" fill="white"/>
<path d="M12.0851 3.49062C12.8972 2.51641 13.2973 1.26423 13.2004 0C11.9597 0.13022 10.8137 0.722779 9.99062 1.65961C9.18578 2.57494 8.76693 3.80509 8.84612 5.021C10.0873 5.03377 11.3074 4.45727 12.0851 3.49062Z" fill="white"/>
</svg>
