<svg width="50" height="50" viewBox="0 0 50 50" fill="none" xmlns="http://www.w3.org/2000/svg">
<g clip-path="url(#clip0_17_670)">
<path d="M43.8931 19.2707C44.9515 23.0821 44.856 27.1218 43.6186 30.8789C42.3812 34.636 40.0574 37.9418 36.9412 40.3782C33.825 42.8146 30.0563 44.2723 26.1117 44.5669C22.167 44.8614 18.2236 43.9796 14.7801 42.033C11.3366 40.0864 8.5477 37.1624 6.76602 33.6308C4.98433 30.0991 4.28991 26.1184 4.77058 22.1921C5.25124 18.2658 6.8854 14.5702 9.4664 11.5726C12.0474 8.57506 15.4593 6.41016 19.2707 5.3517C24.3816 3.93235 29.847 4.60143 34.4646 7.21175C39.0822 9.82208 42.4737 14.1598 43.8931 19.2707V19.2707Z" fill="#F7931A"/>
<path fill-rule="evenodd" clip-rule="evenodd" d="M16.14 15.6995L20.8981 15.6556L20.8633 11.6913L23.2446 11.6772L23.2756 15.4784L25.2166 15.4621L25.1766 11.6219L27.5969 11.5988L27.6247 15.4632C27.6247 15.4632 31.5298 15.2562 33.2262 18.0081C34.9226 20.7599 32.5911 23.1001 31.7527 23.397C31.7527 23.397 35.467 24.2695 35.3256 28.0545C35.1841 31.8394 31.9582 33.4052 28.1612 33.6011L28.226 37.5986L25.8057 37.6216L25.7763 33.6765L23.8541 33.6857L23.8909 37.6571L21.4886 37.677L21.4585 33.7227L16.5718 33.7589L17.0111 30.897C17.0111 30.897 18.3908 30.8912 18.9081 30.8721C19.4255 30.8529 19.5972 30.2618 19.5938 29.7193C19.5903 29.1768 19.3266 20.2434 19.3299 19.5009C19.3331 18.7584 19.1049 18.2425 18.2297 18.2572C17.3545 18.272 16.1518 18.2493 16.1518 18.2493L16.14 15.6995ZM23.6826 25.5325L23.8102 30.7486C23.8102 30.7486 30.5006 31.255 30.4207 27.9504C30.3408 24.6458 23.6826 25.5325 23.6826 25.5325ZM23.6045 23.0634L23.5674 18.2619C23.5674 18.2619 29.0328 17.7479 29.082 20.4119C29.1312 23.0759 25.7972 22.9753 23.6045 23.0634Z" fill="white"/>
</g>
<defs>
<clipPath id="clip0_17_670">
<rect width="40" height="40" fill="white" transform="translate(0 10.7034) rotate(-15.5205)"/>
</clipPath>
</defs>
</svg>
