<svg width="76" height="50" viewBox="0 0 76 50" fill="none" xmlns="http://www.w3.org/2000/svg">
<g clip-path="url(#clip0_16_663)">
<path d="M-18.7969 46L-32.1157 12.781L-45.4345 34.927L-58.7533 16.292L-71.4061 23.854L-84.7249 42.219L-98.0437 23.854L-111.362 27.635L-124.681 20.073L-138 27.635V46H-124.681H-111.362H-98.0437H-84.7249H-71.4061H-58.7533H-45.4345H-32.1157H-18.7969ZM-18.7969 46L-5.47817 34.927H7.84061L21.1594 12.781L34.4782 38.708L47.7969 9L61.1157 42.219L74.4345 12.781L87.7533 20.073L100.406 23.854L113.725 27.635L127.044 23.854L140.362 12.781L153.681 23.854L167 20.073V46H153.681H140.362H127.044H113.725H100.406H87.7533H74.4345H61.1157H47.7969H34.4782H21.1594H7.84061H-5.47817H-18.7969Z" stroke="#15C63C" stroke-width="2"/>
</g>
<defs>
<clipPath id="clip0_16_663">
<rect width="76" height="50" fill="white"/>
</clipPath>
</defs>
</svg>
