<svg width="66" height="52" viewBox="0 0 66 52" fill="none" xmlns="http://www.w3.org/2000/svg">
<g clip-path="url(#clip0_16_665)">
<path d="M-57.7969 46L-71.1157 12.781L-84.4345 34.927L-97.7533 16.292L-110.406 23.854L-123.725 42.219L-137.044 23.854L-150.362 27.635L-163.681 20.073L-177 27.635V46H-163.681H-150.362H-137.044H-123.725H-110.406H-97.7533H-84.4345H-71.1157H-57.7969ZM-57.7969 46L-44.4782 34.927H-31.1594L-17.8406 12.781L-4.52184 38.708L8.79693 9L22.1157 42.219L35.4345 12.781L48.7533 20.073L61.4061 23.854L74.7249 27.635L88.0437 23.854L101.362 12.781L114.681 23.854L128 20.073V46H114.681H101.362H88.0437H74.7249H61.4061H48.7533H35.4345H22.1157H8.79693H-4.52184H-17.8406H-31.1594H-44.4782H-57.7969Z" stroke="#FF0000" stroke-width="2"/>
</g>
<defs>
<clipPath id="clip0_16_665">
<rect width="66" height="52" fill="white"/>
</clipPath>
</defs>
</svg>
